<svg xmlns="http://www.w3.org/2000/svg" viewBox="0 0 512 512" width="512" height="512" role="img" aria-label="Kunai">
  <title>Kunai</title>
  <rect width="512" height="512" rx="96" fill="#100b0f"/>
  <rect x="24" y="24" width="464" height="464" rx="80" fill="none" stroke="#cb6178" stroke-width="2" opacity="0.22"/>
  <g transform="translate(40 64) scale(3)" shape-rendering="crispEdges">
    <rect x="32" y="8" width="8" height="8" fill="#cb6178"/>
    <rect x="104" y="8" width="8" height="8" fill="#cb6178"/>
    <rect x="24" y="16" width="8" height="8" fill="#cb6178"/>
    <rect x="32" y="16" width="8" height="8" fill="#f28ea0"/>
    <rect x="40" y="16" width="8" height="8" fill="#cb6178"/>
    <rect x="96" y="16" width="8" height="8" fill="#cb6178"/>
    <rect x="104" y="16" width="8" height="8" fill="#f28ea0"/>
    <rect x="112" y="16" width="8" height="8" fill="#cb6178"/>
    <rect x="24" y="24" width="8" height="8" fill="#cb6178"/>
    <rect x="32" y="24" width="8" height="8" fill="#f28ea0"/>
    <rect x="40" y="24" width="8" height="8" fill="#f6c4cd"/>
    <rect x="48" y="24" width="8" height="8" fill="#cb6178"/>
    <rect x="88" y="24" width="8" height="8" fill="#cb6178"/>
    <rect x="96" y="24" width="8" height="8" fill="#f6c4cd"/>
    <rect x="104" y="24" width="8" height="8" fill="#f28ea0"/>
    <rect x="112" y="24" width="8" height="8" fill="#cb6178"/>
    <rect x="24" y="32" width="8" height="8" fill="#cb6178"/>
    <rect x="32" y="32" width="8" height="8" fill="#f28ea0"/>
    <rect x="40" y="32" width="8" height="8" fill="#f28ea0"/>
    <rect x="48" y="32" width="8" height="8" fill="#cb6178"/>
    <rect x="88" y="32" width="8" height="8" fill="#cb6178"/>
    <rect x="96" y="32" width="8" height="8" fill="#f28ea0"/>
    <rect x="104" y="32" width="8" height="8" fill="#f28ea0"/>
    <rect x="112" y="32" width="8" height="8" fill="#cb6178"/>
    <rect x="16" y="40" width="8" height="8" fill="#cb6178"/>
    <rect x="24" y="40" width="8" height="8" fill="#f28ea0"/>
    <rect x="32" y="40" width="8" height="8" fill="#f28ea0"/>
    <rect x="40" y="40" width="8" height="8" fill="#f28ea0"/>
    <rect x="48" y="40" width="8" height="8" fill="#cb6178"/>
    <rect x="56" y="40" width="8" height="8" fill="#cb6178"/>
    <rect x="64" y="40" width="8" height="8" fill="#cb6178"/>
    <rect x="72" y="40" width="8" height="8" fill="#cb6178"/>
    <rect x="80" y="40" width="8" height="8" fill="#f28ea0"/>
    <rect x="88" y="40" width="8" height="8" fill="#f28ea0"/>
    <rect x="96" y="40" width="8" height="8" fill="#f28ea0"/>
    <rect x="104" y="40" width="8" height="8" fill="#f28ea0"/>
    <rect x="112" y="40" width="8" height="8" fill="#cb6178"/>
    <rect x="16" y="48" width="8" height="8" fill="#cb6178"/>
    <rect x="24" y="48" width="8" height="8" fill="#f28ea0"/>
    <rect x="32" y="48" width="8" height="8" fill="#f28ea0"/>
    <rect x="40" y="48" width="8" height="8" fill="#f28ea0"/>
    <rect x="48" y="48" width="8" height="8" fill="#f28ea0"/>
    <rect x="56" y="48" width="8" height="8" fill="#f28ea0"/>
    <rect x="64" y="48" width="8" height="8" fill="#f28ea0"/>
    <rect x="72" y="48" width="8" height="8" fill="#f28ea0"/>
    <rect x="80" y="48" width="8" height="8" fill="#f28ea0"/>
    <rect x="88" y="48" width="8" height="8" fill="#f28ea0"/>
    <rect x="96" y="48" width="8" height="8" fill="#f28ea0"/>
    <rect x="104" y="48" width="8" height="8" fill="#f28ea0"/>
    <rect x="112" y="48" width="8" height="8" fill="#f28ea0"/>
    <rect x="120" y="48" width="8" height="8" fill="#cb6178"/>
    <rect x="16" y="56" width="8" height="8" fill="#f28ea0"/>
    <rect x="24" y="56" width="8" height="8" fill="#f28ea0"/>
    <rect x="32" y="56" width="8" height="8" fill="#f28ea0"/>
    <rect x="40" y="56" width="8" height="8" fill="#f28ea0"/>
    <rect x="48" y="56" width="8" height="8" fill="#f28ea0"/>
    <rect x="56" y="56" width="8" height="8" fill="#f28ea0"/>
    <rect x="64" y="56" width="8" height="8" fill="#f28ea0"/>
    <rect x="72" y="56" width="8" height="8" fill="#f28ea0"/>
    <rect x="80" y="56" width="8" height="8" fill="#f28ea0"/>
    <rect x="88" y="56" width="8" height="8" fill="#f28ea0"/>
    <rect x="96" y="56" width="8" height="8" fill="#f28ea0"/>
    <rect x="104" y="56" width="8" height="8" fill="#f28ea0"/>
    <rect x="112" y="56" width="8" height="8" fill="#f28ea0"/>
    <rect x="120" y="56" width="8" height="8" fill="#f28ea0"/>
    <rect x="16" y="64" width="8" height="8" fill="#f28ea0"/>
    <rect x="24" y="64" width="8" height="8" fill="#f28ea0"/>
    <rect x="32" y="64" width="8" height="8" fill="#140d11"/>
    <rect x="40" y="64" width="8" height="8" fill="#140d11"/>
    <rect x="48" y="64" width="8" height="8" fill="#f28ea0"/>
    <rect x="56" y="64" width="8" height="8" fill="#f28ea0"/>
    <rect x="64" y="64" width="8" height="8" fill="#f28ea0"/>
    <rect x="72" y="64" width="8" height="8" fill="#f28ea0"/>
    <rect x="80" y="64" width="8" height="8" fill="#f28ea0"/>
    <rect x="88" y="64" width="8" height="8" fill="#f28ea0"/>
    <rect x="96" y="64" width="8" height="8" fill="#140d11"/>
    <rect x="104" y="64" width="8" height="8" fill="#140d11"/>
    <rect x="112" y="64" width="8" height="8" fill="#f28ea0"/>
    <rect x="120" y="64" width="8" height="8" fill="#f28ea0"/>
    <rect x="16" y="72" width="8" height="8" fill="#f28ea0"/>
    <rect x="24" y="72" width="8" height="8" fill="#f28ea0"/>
    <rect x="32" y="72" width="8" height="8" fill="#f28ea0"/>
    <rect x="40" y="72" width="8" height="8" fill="#f28ea0"/>
    <rect x="48" y="72" width="8" height="8" fill="#f28ea0"/>
    <rect x="56" y="72" width="8" height="8" fill="#f28ea0"/>
    <rect x="64" y="72" width="8" height="8" fill="#f6c4cd"/>
    <rect x="72" y="72" width="8" height="8" fill="#f6c4cd"/>
    <rect x="80" y="72" width="8" height="8" fill="#f28ea0"/>
    <rect x="88" y="72" width="8" height="8" fill="#f28ea0"/>
    <rect x="96" y="72" width="8" height="8" fill="#f28ea0"/>
    <rect x="104" y="72" width="8" height="8" fill="#f28ea0"/>
    <rect x="112" y="72" width="8" height="8" fill="#f28ea0"/>
    <rect x="120" y="72" width="8" height="8" fill="#f28ea0"/>
    <rect x="16" y="80" width="8" height="8" fill="#f28ea0"/>
    <rect x="24" y="80" width="8" height="8" fill="#f6c4cd"/>
    <rect x="32" y="80" width="8" height="8" fill="#f6c4cd"/>
    <rect x="40" y="80" width="8" height="8" fill="#f28ea0"/>
    <rect x="48" y="80" width="8" height="8" fill="#f28ea0"/>
    <rect x="56" y="80" width="8" height="8" fill="#f28ea0"/>
    <rect x="64" y="80" width="8" height="8" fill="#f6c4cd"/>
    <rect x="72" y="80" width="8" height="8" fill="#f6c4cd"/>
    <rect x="80" y="80" width="8" height="8" fill="#f28ea0"/>
    <rect x="88" y="80" width="8" height="8" fill="#f28ea0"/>
    <rect x="96" y="80" width="8" height="8" fill="#f28ea0"/>
    <rect x="104" y="80" width="8" height="8" fill="#f6c4cd"/>
    <rect x="112" y="80" width="8" height="8" fill="#f6c4cd"/>
    <rect x="120" y="80" width="8" height="8" fill="#f28ea0"/>
    <rect x="16" y="88" width="8" height="8" fill="#f28ea0"/>
    <rect x="24" y="88" width="8" height="8" fill="#f6c4cd"/>
    <rect x="32" y="88" width="8" height="8" fill="#f6c4cd"/>
    <rect x="40" y="88" width="8" height="8" fill="#f28ea0"/>
    <rect x="48" y="88" width="8" height="8" fill="#f28ea0"/>
    <rect x="56" y="88" width="8" height="8" fill="#f28ea0"/>
    <rect x="64" y="88" width="8" height="8" fill="#7c3044"/>
    <rect x="72" y="88" width="8" height="8" fill="#7c3044"/>
    <rect x="80" y="88" width="8" height="8" fill="#f28ea0"/>
    <rect x="88" y="88" width="8" height="8" fill="#f28ea0"/>
    <rect x="96" y="88" width="8" height="8" fill="#f28ea0"/>
    <rect x="104" y="88" width="8" height="8" fill="#f6c4cd"/>
    <rect x="112" y="88" width="8" height="8" fill="#f6c4cd"/>
    <rect x="120" y="88" width="8" height="8" fill="#f28ea0"/>
    <rect x="24" y="96" width="8" height="8" fill="#cb6178"/>
    <rect x="32" y="96" width="8" height="8" fill="#f28ea0"/>
    <rect x="40" y="96" width="8" height="8" fill="#f28ea0"/>
    <rect x="48" y="96" width="8" height="8" fill="#f28ea0"/>
    <rect x="56" y="96" width="8" height="8" fill="#f28ea0"/>
    <rect x="64" y="96" width="8" height="8" fill="#7c3044"/>
    <rect x="72" y="96" width="8" height="8" fill="#7c3044"/>
    <rect x="80" y="96" width="8" height="8" fill="#f28ea0"/>
    <rect x="88" y="96" width="8" height="8" fill="#f28ea0"/>
    <rect x="96" y="96" width="8" height="8" fill="#f28ea0"/>
    <rect x="104" y="96" width="8" height="8" fill="#f28ea0"/>
    <rect x="112" y="96" width="8" height="8" fill="#cb6178"/>
    <rect x="32" y="104" width="8" height="8" fill="#cb6178"/>
    <rect x="40" y="104" width="8" height="8" fill="#f28ea0"/>
    <rect x="48" y="104" width="8" height="8" fill="#f28ea0"/>
    <rect x="56" y="104" width="8" height="8" fill="#f28ea0"/>
    <rect x="64" y="104" width="8" height="8" fill="#f28ea0"/>
    <rect x="72" y="104" width="8" height="8" fill="#f28ea0"/>
    <rect x="80" y="104" width="8" height="8" fill="#f28ea0"/>
    <rect x="88" y="104" width="8" height="8" fill="#f28ea0"/>
    <rect x="96" y="104" width="8" height="8" fill="#f28ea0"/>
    <rect x="104" y="104" width="8" height="8" fill="#cb6178"/>
    <rect x="48" y="112" width="8" height="8" fill="#cb6178"/>
    <rect x="56" y="112" width="8" height="8" fill="#f28ea0"/>
    <rect x="64" y="112" width="8" height="8" fill="#f28ea0"/>
    <rect x="72" y="112" width="8" height="8" fill="#f28ea0"/>
    <rect x="80" y="112" width="8" height="8" fill="#f28ea0"/>
    <rect x="88" y="112" width="8" height="8" fill="#cb6178"/>
  </g>
</svg>
