<svg xmlns="http://www.w3.org/2000/svg" viewBox="0 0 1200 630" width="1200" height="630" role="img" aria-label="Kunai Docs — terminal-first playback guides">
  <defs>
    <linearGradient id="bg" x1="0" y1="0" x2="1" y2="1">
      <stop offset="0%" stop-color="#100b0f"/>
      <stop offset="100%" stop-color="#2a2030"/>
    </linearGradient>
    <radialGradient id="glow" cx="18%" cy="42%" r="48%">
      <stop offset="0%" stop-color="rgba(255,143,176,0.12)"/>
      <stop offset="100%" stop-color="transparent"/>
    </radialGradient>
  </defs>
  <rect width="1200" height="630" fill="url(#bg)"/>
  <rect width="1200" height="630" fill="url(#glow)"/>
  <line x1="80" y1="0" x2="80" y2="630" stroke="#281f2e" stroke-width="1" opacity="0.12"/>
    <line x1="160" y1="0" x2="160" y2="630" stroke="#281f2e" stroke-width="1" opacity="0.12"/>
    <line x1="240" y1="0" x2="240" y2="630" stroke="#281f2e" stroke-width="1" opacity="0.12"/>
    <line x1="320" y1="0" x2="320" y2="630" stroke="#281f2e" stroke-width="1" opacity="0.12"/>
    <line x1="400" y1="0" x2="400" y2="630" stroke="#281f2e" stroke-width="1" opacity="0.12"/>
    <line x1="480" y1="0" x2="480" y2="630" stroke="#281f2e" stroke-width="1" opacity="0.12"/>
    <line x1="560" y1="0" x2="560" y2="630" stroke="#281f2e" stroke-width="1" opacity="0.12"/>
    <line x1="640" y1="0" x2="640" y2="630" stroke="#281f2e" stroke-width="1" opacity="0.12"/>
    <line x1="720" y1="0" x2="720" y2="630" stroke="#281f2e" stroke-width="1" opacity="0.12"/>
    <line x1="800" y1="0" x2="800" y2="630" stroke="#281f2e" stroke-width="1" opacity="0.12"/>
    <line x1="880" y1="0" x2="880" y2="630" stroke="#281f2e" stroke-width="1" opacity="0.12"/>
    <line x1="960" y1="0" x2="960" y2="630" stroke="#281f2e" stroke-width="1" opacity="0.12"/>
    <line x1="1040" y1="0" x2="1040" y2="630" stroke="#281f2e" stroke-width="1" opacity="0.12"/>
    <line x1="1120" y1="0" x2="1120" y2="630" stroke="#281f2e" stroke-width="1" opacity="0.12"/>
    <line x1="0" y1="80" x2="1200" y2="80" stroke="#281f2e" stroke-width="1" opacity="0.12"/>
    <line x1="0" y1="160" x2="1200" y2="160" stroke="#281f2e" stroke-width="1" opacity="0.12"/>
    <line x1="0" y1="240" x2="1200" y2="240" stroke="#281f2e" stroke-width="1" opacity="0.12"/>
    <line x1="0" y1="320" x2="1200" y2="320" stroke="#281f2e" stroke-width="1" opacity="0.12"/>
    <line x1="0" y1="400" x2="1200" y2="400" stroke="#281f2e" stroke-width="1" opacity="0.12"/>
    <line x1="0" y1="480" x2="1200" y2="480" stroke="#281f2e" stroke-width="1" opacity="0.12"/>
    <line x1="0" y1="560" x2="1200" y2="560" stroke="#281f2e" stroke-width="1" opacity="0.12"/>
  <g transform="translate(72 157) scale(2.35)" shape-rendering="crispEdges">
    <rect x="32" y="8" width="8" height="8" fill="#cb6178"/>
    <rect x="104" y="8" width="8" height="8" fill="#cb6178"/>
    <rect x="24" y="16" width="8" height="8" fill="#cb6178"/>
    <rect x="32" y="16" width="8" height="8" fill="#f28ea0"/>
    <rect x="40" y="16" width="8" height="8" fill="#cb6178"/>
    <rect x="96" y="16" width="8" height="8" fill="#cb6178"/>
    <rect x="104" y="16" width="8" height="8" fill="#f28ea0"/>
    <rect x="112" y="16" width="8" height="8" fill="#cb6178"/>
    <rect x="24" y="24" width="8" height="8" fill="#cb6178"/>
    <rect x="32" y="24" width="8" height="8" fill="#f28ea0"/>
    <rect x="40" y="24" width="8" height="8" fill="#f6c4cd"/>
    <rect x="48" y="24" width="8" height="8" fill="#cb6178"/>
    <rect x="88" y="24" width="8" height="8" fill="#cb6178"/>
    <rect x="96" y="24" width="8" height="8" fill="#f6c4cd"/>
    <rect x="104" y="24" width="8" height="8" fill="#f28ea0"/>
    <rect x="112" y="24" width="8" height="8" fill="#cb6178"/>
    <rect x="24" y="32" width="8" height="8" fill="#cb6178"/>
    <rect x="32" y="32" width="8" height="8" fill="#f28ea0"/>
    <rect x="40" y="32" width="8" height="8" fill="#f28ea0"/>
    <rect x="48" y="32" width="8" height="8" fill="#cb6178"/>
    <rect x="88" y="32" width="8" height="8" fill="#cb6178"/>
    <rect x="96" y="32" width="8" height="8" fill="#f28ea0"/>
    <rect x="104" y="32" width="8" height="8" fill="#f28ea0"/>
    <rect x="112" y="32" width="8" height="8" fill="#cb6178"/>
    <rect x="16" y="40" width="8" height="8" fill="#cb6178"/>
    <rect x="24" y="40" width="8" height="8" fill="#f28ea0"/>
    <rect x="32" y="40" width="8" height="8" fill="#f28ea0"/>
    <rect x="40" y="40" width="8" height="8" fill="#f28ea0"/>
    <rect x="48" y="40" width="8" height="8" fill="#cb6178"/>
    <rect x="56" y="40" width="8" height="8" fill="#cb6178"/>
    <rect x="64" y="40" width="8" height="8" fill="#cb6178"/>
    <rect x="72" y="40" width="8" height="8" fill="#cb6178"/>
    <rect x="80" y="40" width="8" height="8" fill="#f28ea0"/>
    <rect x="88" y="40" width="8" height="8" fill="#f28ea0"/>
    <rect x="96" y="40" width="8" height="8" fill="#f28ea0"/>
    <rect x="104" y="40" width="8" height="8" fill="#f28ea0"/>
    <rect x="112" y="40" width="8" height="8" fill="#cb6178"/>
    <rect x="16" y="48" width="8" height="8" fill="#cb6178"/>
    <rect x="24" y="48" width="8" height="8" fill="#f28ea0"/>
    <rect x="32" y="48" width="8" height="8" fill="#f28ea0"/>
    <rect x="40" y="48" width="8" height="8" fill="#f28ea0"/>
    <rect x="48" y="48" width="8" height="8" fill="#f28ea0"/>
    <rect x="56" y="48" width="8" height="8" fill="#f28ea0"/>
    <rect x="64" y="48" width="8" height="8" fill="#f28ea0"/>
    <rect x="72" y="48" width="8" height="8" fill="#f28ea0"/>
    <rect x="80" y="48" width="8" height="8" fill="#f28ea0"/>
    <rect x="88" y="48" width="8" height="8" fill="#f28ea0"/>
    <rect x="96" y="48" width="8" height="8" fill="#f28ea0"/>
    <rect x="104" y="48" width="8" height="8" fill="#f28ea0"/>
    <rect x="112" y="48" width="8" height="8" fill="#f28ea0"/>
    <rect x="120" y="48" width="8" height="8" fill="#cb6178"/>
    <rect x="16" y="56" width="8" height="8" fill="#f28ea0"/>
    <rect x="24" y="56" width="8" height="8" fill="#f28ea0"/>
    <rect x="32" y="56" width="8" height="8" fill="#f28ea0"/>
    <rect x="40" y="56" width="8" height="8" fill="#f28ea0"/>
    <rect x="48" y="56" width="8" height="8" fill="#f28ea0"/>
    <rect x="56" y="56" width="8" height="8" fill="#f28ea0"/>
    <rect x="64" y="56" width="8" height="8" fill="#f28ea0"/>
    <rect x="72" y="56" width="8" height="8" fill="#f28ea0"/>
    <rect x="80" y="56" width="8" height="8" fill="#f28ea0"/>
    <rect x="88" y="56" width="8" height="8" fill="#f28ea0"/>
    <rect x="96" y="56" width="8" height="8" fill="#f28ea0"/>
    <rect x="104" y="56" width="8" height="8" fill="#f28ea0"/>
    <rect x="112" y="56" width="8" height="8" fill="#f28ea0"/>
    <rect x="120" y="56" width="8" height="8" fill="#f28ea0"/>
    <rect x="16" y="64" width="8" height="8" fill="#f28ea0"/>
    <rect x="24" y="64" width="8" height="8" fill="#f28ea0"/>
    <rect x="32" y="64" width="8" height="8" fill="#140d11"/>
    <rect x="40" y="64" width="8" height="8" fill="#140d11"/>
    <rect x="48" y="64" width="8" height="8" fill="#f28ea0"/>
    <rect x="56" y="64" width="8" height="8" fill="#f28ea0"/>
    <rect x="64" y="64" width="8" height="8" fill="#f28ea0"/>
    <rect x="72" y="64" width="8" height="8" fill="#f28ea0"/>
    <rect x="80" y="64" width="8" height="8" fill="#f28ea0"/>
    <rect x="88" y="64" width="8" height="8" fill="#f28ea0"/>
    <rect x="96" y="64" width="8" height="8" fill="#140d11"/>
    <rect x="104" y="64" width="8" height="8" fill="#140d11"/>
    <rect x="112" y="64" width="8" height="8" fill="#f28ea0"/>
    <rect x="120" y="64" width="8" height="8" fill="#f28ea0"/>
    <rect x="16" y="72" width="8" height="8" fill="#f28ea0"/>
    <rect x="24" y="72" width="8" height="8" fill="#f28ea0"/>
    <rect x="32" y="72" width="8" height="8" fill="#f28ea0"/>
    <rect x="40" y="72" width="8" height="8" fill="#f28ea0"/>
    <rect x="48" y="72" width="8" height="8" fill="#f28ea0"/>
    <rect x="56" y="72" width="8" height="8" fill="#f28ea0"/>
    <rect x="64" y="72" width="8" height="8" fill="#f6c4cd"/>
    <rect x="72" y="72" width="8" height="8" fill="#f6c4cd"/>
    <rect x="80" y="72" width="8" height="8" fill="#f28ea0"/>
    <rect x="88" y="72" width="8" height="8" fill="#f28ea0"/>
    <rect x="96" y="72" width="8" height="8" fill="#f28ea0"/>
    <rect x="104" y="72" width="8" height="8" fill="#f28ea0"/>
    <rect x="112" y="72" width="8" height="8" fill="#f28ea0"/>
    <rect x="120" y="72" width="8" height="8" fill="#f28ea0"/>
    <rect x="16" y="80" width="8" height="8" fill="#f28ea0"/>
    <rect x="24" y="80" width="8" height="8" fill="#f6c4cd"/>
    <rect x="32" y="80" width="8" height="8" fill="#f6c4cd"/>
    <rect x="40" y="80" width="8" height="8" fill="#f28ea0"/>
    <rect x="48" y="80" width="8" height="8" fill="#f28ea0"/>
    <rect x="56" y="80" width="8" height="8" fill="#f28ea0"/>
    <rect x="64" y="80" width="8" height="8" fill="#f6c4cd"/>
    <rect x="72" y="80" width="8" height="8" fill="#f6c4cd"/>
    <rect x="80" y="80" width="8" height="8" fill="#f28ea0"/>
    <rect x="88" y="80" width="8" height="8" fill="#f28ea0"/>
    <rect x="96" y="80" width="8" height="8" fill="#f28ea0"/>
    <rect x="104" y="80" width="8" height="8" fill="#f6c4cd"/>
    <rect x="112" y="80" width="8" height="8" fill="#f6c4cd"/>
    <rect x="120" y="80" width="8" height="8" fill="#f28ea0"/>
    <rect x="16" y="88" width="8" height="8" fill="#f28ea0"/>
    <rect x="24" y="88" width="8" height="8" fill="#f6c4cd"/>
    <rect x="32" y="88" width="8" height="8" fill="#f6c4cd"/>
    <rect x="40" y="88" width="8" height="8" fill="#f28ea0"/>
    <rect x="48" y="88" width="8" height="8" fill="#f28ea0"/>
    <rect x="56" y="88" width="8" height="8" fill="#f28ea0"/>
    <rect x="64" y="88" width="8" height="8" fill="#7c3044"/>
    <rect x="72" y="88" width="8" height="8" fill="#7c3044"/>
    <rect x="80" y="88" width="8" height="8" fill="#f28ea0"/>
    <rect x="88" y="88" width="8" height="8" fill="#f28ea0"/>
    <rect x="96" y="88" width="8" height="8" fill="#f28ea0"/>
    <rect x="104" y="88" width="8" height="8" fill="#f6c4cd"/>
    <rect x="112" y="88" width="8" height="8" fill="#f6c4cd"/>
    <rect x="120" y="88" width="8" height="8" fill="#f28ea0"/>
    <rect x="24" y="96" width="8" height="8" fill="#cb6178"/>
    <rect x="32" y="96" width="8" height="8" fill="#f28ea0"/>
    <rect x="40" y="96" width="8" height="8" fill="#f28ea0"/>
    <rect x="48" y="96" width="8" height="8" fill="#f28ea0"/>
    <rect x="56" y="96" width="8" height="8" fill="#f28ea0"/>
    <rect x="64" y="96" width="8" height="8" fill="#7c3044"/>
    <rect x="72" y="96" width="8" height="8" fill="#7c3044"/>
    <rect x="80" y="96" width="8" height="8" fill="#f28ea0"/>
    <rect x="88" y="96" width="8" height="8" fill="#f28ea0"/>
    <rect x="96" y="96" width="8" height="8" fill="#f28ea0"/>
    <rect x="104" y="96" width="8" height="8" fill="#f28ea0"/>
    <rect x="112" y="96" width="8" height="8" fill="#cb6178"/>
    <rect x="32" y="104" width="8" height="8" fill="#cb6178"/>
    <rect x="40" y="104" width="8" height="8" fill="#f28ea0"/>
    <rect x="48" y="104" width="8" height="8" fill="#f28ea0"/>
    <rect x="56" y="104" width="8" height="8" fill="#f28ea0"/>
    <rect x="64" y="104" width="8" height="8" fill="#f28ea0"/>
    <rect x="72" y="104" width="8" height="8" fill="#f28ea0"/>
    <rect x="80" y="104" width="8" height="8" fill="#f28ea0"/>
    <rect x="88" y="104" width="8" height="8" fill="#f28ea0"/>
    <rect x="96" y="104" width="8" height="8" fill="#f28ea0"/>
    <rect x="104" y="104" width="8" height="8" fill="#cb6178"/>
    <rect x="48" y="112" width="8" height="8" fill="#cb6178"/>
    <rect x="56" y="112" width="8" height="8" fill="#f28ea0"/>
    <rect x="64" y="112" width="8" height="8" fill="#f28ea0"/>
    <rect x="72" y="112" width="8" height="8" fill="#f28ea0"/>
    <rect x="80" y="112" width="8" height="8" fill="#f28ea0"/>
    <rect x="88" y="112" width="8" height="8" fill="#cb6178"/>
  </g>
  <g transform="translate(72 56) scale(0.72)">
    <title>Kunai — kitsune blade mark</title>
  <!-- Fox-face / kunai-blade fusion: two ears = blade shoulders, point = blade tip. -->
  <path d="M32 59 L50 31 L45.5 13 L37 29 L32 33 L27 29 L18.5 13 L14 31 Z"
        fill="#f28ea0" stroke="#cb6178" stroke-width="1.5" stroke-linejoin="round"/>
  <!-- forged-edge facet down the blade -->
  <path d="M32 33 L32 59" stroke="#cb6178" stroke-width="1.4" stroke-linecap="round" opacity="0.7"/>
  <!-- kitsune eyes -->
  <rect x="24" y="35" width="4" height="4" rx="0.6" fill="#140d11"/>
  <rect x="36" y="35" width="4" height="4" rx="0.6" fill="#140d11"/>
  <!-- inner-ear sparks -->
  <path d="M22 22 l3 4" stroke="#f6c4cd" stroke-width="1.6" stroke-linecap="round"/>
  <path d="M42 22 l-3 4" stroke="#f6c4cd" stroke-width="1.6" stroke-linecap="round"/>
  </g>
  <text x="420" y="118" font-family="ui-monospace, 'JetBrains Mono', Menlo, monospace" font-size="22" letter-spacing="7" fill="#ff8fb0">KUNAI DOCS</text>
  <text x="420" y="214" font-family="ui-serif, 'Iowan Old Style', 'Palatino Linotype', Palatino, serif" font-size="58" font-weight="500" fill="#f6eff4">Terminal-first</text>
  <text x="420" y="278" font-family="ui-serif, 'Iowan Old Style', 'Palatino Linotype', Palatino, serif" font-size="58" font-weight="500" fill="#f6eff4">playback guides</text>
  <text x="420" y="332" font-family="ui-monospace, 'JetBrains Mono', Menlo, monospace" font-size="20" fill="#cabfca">Search · resolve streams · mpv handoff · clean recovery</text>
  
  <g>
    <rect x="420" y="372" width="680" height="56" rx="10" fill="#1c1620" stroke="#473b51" stroke-width="1"/>
    <rect x="420" y="372" width="680" height="22" rx="10" fill="#2a2030"/>
    <rect x="420" y="382" width="680" height="12" fill="#2a2030"/>
    <circle cx="438" cy="383" r="4" fill="#d85f86" opacity="0.85"/>
    <circle cx="452" cy="383" r="4" fill="#968a98" opacity="0.45"/>
    <circle cx="466" cy="383" r="4" fill="#968a98" opacity="0.45"/>
    <text x="440" y="416" font-family="ui-monospace, 'JetBrains Mono', Menlo, monospace" font-size="18" fill="#cabfca">
      <tspan fill="#ff8fb0">></tspan> kunai -S "Your title"
    </text>
  </g>
  
  <g font-family="ui-monospace, 'JetBrains Mono', Menlo, monospace" font-size="13" fill="#968a98">
    <circle cx="420" cy="576" r="5" fill="#c98bff"/>
    <text x="434" y="580">anime</text>
    <circle cx="508" cy="576" r="5" fill="#4fd1c5"/>
    <text x="522" y="580">series</text>
    <circle cx="596" cy="576" r="5" fill="#f4c45c"/>
    <text x="610" y="580">movies</text>
  </g>
  <text x="1128" y="582" text-anchor="end" font-family="ui-monospace, 'JetBrains Mono', Menlo, monospace" font-size="14" fill="#968a98">docs · kunai</text>
</svg>