<svg xmlns="http://www.w3.org/2000/svg" viewBox="0 0 144 128" width="144" height="128" role="img" aria-label="Kunai fox mascot (animated)" shape-rendering="crispEdges">
  <title>Kunai — idle</title>
  <g>
    <animateTransform attributeName="transform" type="translate" values="0 0; 0 -1.5; 0 0" keyTimes="0;0.5;1" dur="3.2s" repeatCount="indefinite" calcMode="spline" keySplines="0.45 0 0.55 1; 0.45 0 0.55 1"/>
    <rect x="32" y="8" width="8" height="8" fill="#cb6178"/>
    <rect x="104" y="8" width="8" height="8" fill="#cb6178"/>
    <rect x="24" y="16" width="8" height="8" fill="#cb6178"/>
    <rect x="32" y="16" width="8" height="8" fill="#f28ea0"/>
    <rect x="40" y="16" width="8" height="8" fill="#cb6178"/>
    <rect x="96" y="16" width="8" height="8" fill="#cb6178"/>
    <rect x="104" y="16" width="8" height="8" fill="#f28ea0"/>
    <rect x="112" y="16" width="8" height="8" fill="#cb6178"/>
    <rect x="24" y="24" width="8" height="8" fill="#cb6178"/>
    <rect x="32" y="24" width="8" height="8" fill="#f28ea0"/>
    <rect x="40" y="24" width="8" height="8" fill="#f6c4cd"/>
    <rect x="48" y="24" width="8" height="8" fill="#cb6178"/>
    <rect x="88" y="24" width="8" height="8" fill="#cb6178"/>
    <rect x="96" y="24" width="8" height="8" fill="#f6c4cd"/>
    <rect x="104" y="24" width="8" height="8" fill="#f28ea0"/>
    <rect x="112" y="24" width="8" height="8" fill="#cb6178"/>
    <rect x="24" y="32" width="8" height="8" fill="#cb6178"/>
    <rect x="32" y="32" width="8" height="8" fill="#f28ea0"/>
    <rect x="40" y="32" width="8" height="8" fill="#f28ea0"/>
    <rect x="48" y="32" width="8" height="8" fill="#cb6178"/>
    <rect x="88" y="32" width="8" height="8" fill="#cb6178"/>
    <rect x="96" y="32" width="8" height="8" fill="#f28ea0"/>
    <rect x="104" y="32" width="8" height="8" fill="#f28ea0"/>
    <rect x="112" y="32" width="8" height="8" fill="#cb6178"/>
    <rect x="16" y="40" width="8" height="8" fill="#cb6178"/>
    <rect x="24" y="40" width="8" height="8" fill="#f28ea0"/>
    <rect x="32" y="40" width="8" height="8" fill="#f28ea0"/>
    <rect x="40" y="40" width="8" height="8" fill="#f28ea0"/>
    <rect x="48" y="40" width="8" height="8" fill="#cb6178"/>
    <rect x="56" y="40" width="8" height="8" fill="#cb6178"/>
    <rect x="64" y="40" width="8" height="8" fill="#cb6178"/>
    <rect x="72" y="40" width="8" height="8" fill="#cb6178"/>
    <rect x="80" y="40" width="8" height="8" fill="#f28ea0"/>
    <rect x="88" y="40" width="8" height="8" fill="#f28ea0"/>
    <rect x="96" y="40" width="8" height="8" fill="#f28ea0"/>
    <rect x="104" y="40" width="8" height="8" fill="#f28ea0"/>
    <rect x="112" y="40" width="8" height="8" fill="#cb6178"/>
    <rect x="16" y="48" width="8" height="8" fill="#cb6178"/>
    <rect x="24" y="48" width="8" height="8" fill="#f28ea0"/>
    <rect x="32" y="48" width="8" height="8" fill="#f28ea0"/>
    <rect x="40" y="48" width="8" height="8" fill="#f28ea0"/>
    <rect x="48" y="48" width="8" height="8" fill="#f28ea0"/>
    <rect x="56" y="48" width="8" height="8" fill="#f28ea0"/>
    <rect x="64" y="48" width="8" height="8" fill="#f28ea0"/>
    <rect x="72" y="48" width="8" height="8" fill="#f28ea0"/>
    <rect x="80" y="48" width="8" height="8" fill="#f28ea0"/>
    <rect x="88" y="48" width="8" height="8" fill="#f28ea0"/>
    <rect x="96" y="48" width="8" height="8" fill="#f28ea0"/>
    <rect x="104" y="48" width="8" height="8" fill="#f28ea0"/>
    <rect x="112" y="48" width="8" height="8" fill="#f28ea0"/>
    <rect x="120" y="48" width="8" height="8" fill="#cb6178"/>
    <rect x="16" y="56" width="8" height="8" fill="#f28ea0"/>
    <rect x="24" y="56" width="8" height="8" fill="#f28ea0"/>
    <rect x="32" y="56" width="8" height="8" fill="#f28ea0"/>
    <rect x="40" y="56" width="8" height="8" fill="#f28ea0"/>
    <rect x="48" y="56" width="8" height="8" fill="#f28ea0"/>
    <rect x="56" y="56" width="8" height="8" fill="#f28ea0"/>
    <rect x="64" y="56" width="8" height="8" fill="#f28ea0"/>
    <rect x="72" y="56" width="8" height="8" fill="#f28ea0"/>
    <rect x="80" y="56" width="8" height="8" fill="#f28ea0"/>
    <rect x="88" y="56" width="8" height="8" fill="#f28ea0"/>
    <rect x="96" y="56" width="8" height="8" fill="#f28ea0"/>
    <rect x="104" y="56" width="8" height="8" fill="#f28ea0"/>
    <rect x="112" y="56" width="8" height="8" fill="#f28ea0"/>
    <rect x="120" y="56" width="8" height="8" fill="#f28ea0"/>
    <rect x="16" y="64" width="8" height="8" fill="#f28ea0"/>
    <rect x="24" y="64" width="8" height="8" fill="#f28ea0"/>
    <rect x="32" y="64" width="8" height="8" fill="#140d11"/>
    <rect x="40" y="64" width="8" height="8" fill="#140d11"/>
    <rect x="48" y="64" width="8" height="8" fill="#f28ea0"/>
    <rect x="56" y="64" width="8" height="8" fill="#f28ea0"/>
    <rect x="64" y="64" width="8" height="8" fill="#f28ea0"/>
    <rect x="72" y="64" width="8" height="8" fill="#f28ea0"/>
    <rect x="80" y="64" width="8" height="8" fill="#f28ea0"/>
    <rect x="88" y="64" width="8" height="8" fill="#f28ea0"/>
    <rect x="96" y="64" width="8" height="8" fill="#140d11"/>
    <rect x="104" y="64" width="8" height="8" fill="#140d11"/>
    <rect x="112" y="64" width="8" height="8" fill="#f28ea0"/>
    <rect x="120" y="64" width="8" height="8" fill="#f28ea0"/>
    <rect x="16" y="72" width="8" height="8" fill="#f28ea0"/>
    <rect x="24" y="72" width="8" height="8" fill="#f28ea0"/>
    <rect x="32" y="72" width="8" height="8" fill="#f28ea0"/>
    <rect x="40" y="72" width="8" height="8" fill="#f28ea0"/>
    <rect x="48" y="72" width="8" height="8" fill="#f28ea0"/>
    <rect x="56" y="72" width="8" height="8" fill="#f28ea0"/>
    <rect x="64" y="72" width="8" height="8" fill="#f6c4cd"/>
    <rect x="72" y="72" width="8" height="8" fill="#f6c4cd"/>
    <rect x="80" y="72" width="8" height="8" fill="#f28ea0"/>
    <rect x="88" y="72" width="8" height="8" fill="#f28ea0"/>
    <rect x="96" y="72" width="8" height="8" fill="#f28ea0"/>
    <rect x="104" y="72" width="8" height="8" fill="#f28ea0"/>
    <rect x="112" y="72" width="8" height="8" fill="#f28ea0"/>
    <rect x="120" y="72" width="8" height="8" fill="#f28ea0"/>
    <rect x="16" y="80" width="8" height="8" fill="#f28ea0"/>
    <rect x="24" y="80" width="8" height="8" fill="#f6c4cd"/>
    <rect x="32" y="80" width="8" height="8" fill="#f6c4cd"/>
    <rect x="40" y="80" width="8" height="8" fill="#f28ea0"/>
    <rect x="48" y="80" width="8" height="8" fill="#f28ea0"/>
    <rect x="56" y="80" width="8" height="8" fill="#f28ea0"/>
    <rect x="64" y="80" width="8" height="8" fill="#f6c4cd"/>
    <rect x="72" y="80" width="8" height="8" fill="#f6c4cd"/>
    <rect x="80" y="80" width="8" height="8" fill="#f28ea0"/>
    <rect x="88" y="80" width="8" height="8" fill="#f28ea0"/>
    <rect x="96" y="80" width="8" height="8" fill="#f28ea0"/>
    <rect x="104" y="80" width="8" height="8" fill="#f6c4cd"/>
    <rect x="112" y="80" width="8" height="8" fill="#f6c4cd"/>
    <rect x="120" y="80" width="8" height="8" fill="#f28ea0"/>
    <rect x="16" y="88" width="8" height="8" fill="#f28ea0"/>
    <rect x="24" y="88" width="8" height="8" fill="#f6c4cd"/>
    <rect x="32" y="88" width="8" height="8" fill="#f6c4cd"/>
    <rect x="40" y="88" width="8" height="8" fill="#f28ea0"/>
    <rect x="48" y="88" width="8" height="8" fill="#f28ea0"/>
    <rect x="56" y="88" width="8" height="8" fill="#f28ea0"/>
    <rect x="64" y="88" width="8" height="8" fill="#7c3044"/>
    <rect x="72" y="88" width="8" height="8" fill="#7c3044"/>
    <rect x="80" y="88" width="8" height="8" fill="#f28ea0"/>
    <rect x="88" y="88" width="8" height="8" fill="#f28ea0"/>
    <rect x="96" y="88" width="8" height="8" fill="#f28ea0"/>
    <rect x="104" y="88" width="8" height="8" fill="#f6c4cd"/>
    <rect x="112" y="88" width="8" height="8" fill="#f6c4cd"/>
    <rect x="120" y="88" width="8" height="8" fill="#f28ea0"/>
    <rect x="24" y="96" width="8" height="8" fill="#cb6178"/>
    <rect x="32" y="96" width="8" height="8" fill="#f28ea0"/>
    <rect x="40" y="96" width="8" height="8" fill="#f28ea0"/>
    <rect x="48" y="96" width="8" height="8" fill="#f28ea0"/>
    <rect x="56" y="96" width="8" height="8" fill="#f28ea0"/>
    <rect x="64" y="96" width="8" height="8" fill="#7c3044"/>
    <rect x="72" y="96" width="8" height="8" fill="#7c3044"/>
    <rect x="80" y="96" width="8" height="8" fill="#f28ea0"/>
    <rect x="88" y="96" width="8" height="8" fill="#f28ea0"/>
    <rect x="96" y="96" width="8" height="8" fill="#f28ea0"/>
    <rect x="104" y="96" width="8" height="8" fill="#f28ea0"/>
    <rect x="112" y="96" width="8" height="8" fill="#cb6178"/>
    <rect x="32" y="104" width="8" height="8" fill="#cb6178"/>
    <rect x="40" y="104" width="8" height="8" fill="#f28ea0"/>
    <rect x="48" y="104" width="8" height="8" fill="#f28ea0"/>
    <rect x="56" y="104" width="8" height="8" fill="#f28ea0"/>
    <rect x="64" y="104" width="8" height="8" fill="#f28ea0"/>
    <rect x="72" y="104" width="8" height="8" fill="#f28ea0"/>
    <rect x="80" y="104" width="8" height="8" fill="#f28ea0"/>
    <rect x="88" y="104" width="8" height="8" fill="#f28ea0"/>
    <rect x="96" y="104" width="8" height="8" fill="#f28ea0"/>
    <rect x="104" y="104" width="8" height="8" fill="#cb6178"/>
    <rect x="48" y="112" width="8" height="8" fill="#cb6178"/>
    <rect x="56" y="112" width="8" height="8" fill="#f28ea0"/>
    <rect x="64" y="112" width="8" height="8" fill="#f28ea0"/>
    <rect x="72" y="112" width="8" height="8" fill="#f28ea0"/>
    <rect x="80" y="112" width="8" height="8" fill="#f28ea0"/>
    <rect x="88" y="112" width="8" height="8" fill="#cb6178"/>
    <rect x="32" y="64" width="16" height="8" fill="#f28ea0" opacity="0">
        <animate attributeName="opacity" values="0;0;1;0;0" keyTimes="0;0.45;0.5;0.55;1" dur="4.2s" repeatCount="indefinite"/>
      </rect>
    <rect x="96" y="64" width="16" height="8" fill="#f28ea0" opacity="0">
        <animate attributeName="opacity" values="0;0;1;0;0" keyTimes="0;0.45;0.5;0.55;1" dur="4.2s" repeatCount="indefinite"/>
      </rect>
  </g>
</svg>
