<svg xmlns="http://www.w3.org/2000/svg" viewBox="0 0 900 230" width="900" height="230" role="img" aria-label="Kunai — terminal-native media shell">
  <rect x="0" y="0" width="900" height="230" fill="#100b0f"/>
  <g transform="translate(40 41) scale(1.15)" shape-rendering="crispEdges">
    <rect x="32" y="8" width="8" height="8" fill="#cb6178"/>
    <rect x="104" y="8" width="8" height="8" fill="#cb6178"/>
    <rect x="24" y="16" width="8" height="8" fill="#cb6178"/>
    <rect x="32" y="16" width="8" height="8" fill="#f28ea0"/>
    <rect x="40" y="16" width="8" height="8" fill="#cb6178"/>
    <rect x="96" y="16" width="8" height="8" fill="#cb6178"/>
    <rect x="104" y="16" width="8" height="8" fill="#f28ea0"/>
    <rect x="112" y="16" width="8" height="8" fill="#cb6178"/>
    <rect x="24" y="24" width="8" height="8" fill="#cb6178"/>
    <rect x="32" y="24" width="8" height="8" fill="#f28ea0"/>
    <rect x="40" y="24" width="8" height="8" fill="#f6c4cd"/>
    <rect x="48" y="24" width="8" height="8" fill="#cb6178"/>
    <rect x="88" y="24" width="8" height="8" fill="#cb6178"/>
    <rect x="96" y="24" width="8" height="8" fill="#f6c4cd"/>
    <rect x="104" y="24" width="8" height="8" fill="#f28ea0"/>
    <rect x="112" y="24" width="8" height="8" fill="#cb6178"/>
    <rect x="24" y="32" width="8" height="8" fill="#cb6178"/>
    <rect x="32" y="32" width="8" height="8" fill="#f28ea0"/>
    <rect x="40" y="32" width="8" height="8" fill="#f28ea0"/>
    <rect x="48" y="32" width="8" height="8" fill="#cb6178"/>
    <rect x="88" y="32" width="8" height="8" fill="#cb6178"/>
    <rect x="96" y="32" width="8" height="8" fill="#f28ea0"/>
    <rect x="104" y="32" width="8" height="8" fill="#f28ea0"/>
    <rect x="112" y="32" width="8" height="8" fill="#cb6178"/>
    <rect x="16" y="40" width="8" height="8" fill="#cb6178"/>
    <rect x="24" y="40" width="8" height="8" fill="#f28ea0"/>
    <rect x="32" y="40" width="8" height="8" fill="#f28ea0"/>
    <rect x="40" y="40" width="8" height="8" fill="#f28ea0"/>
    <rect x="48" y="40" width="8" height="8" fill="#cb6178"/>
    <rect x="56" y="40" width="8" height="8" fill="#cb6178"/>
    <rect x="64" y="40" width="8" height="8" fill="#cb6178"/>
    <rect x="72" y="40" width="8" height="8" fill="#cb6178"/>
    <rect x="80" y="40" width="8" height="8" fill="#f28ea0"/>
    <rect x="88" y="40" width="8" height="8" fill="#f28ea0"/>
    <rect x="96" y="40" width="8" height="8" fill="#f28ea0"/>
    <rect x="104" y="40" width="8" height="8" fill="#f28ea0"/>
    <rect x="112" y="40" width="8" height="8" fill="#cb6178"/>
    <rect x="16" y="48" width="8" height="8" fill="#cb6178"/>
    <rect x="24" y="48" width="8" height="8" fill="#f28ea0"/>
    <rect x="32" y="48" width="8" height="8" fill="#f28ea0"/>
    <rect x="40" y="48" width="8" height="8" fill="#f28ea0"/>
    <rect x="48" y="48" width="8" height="8" fill="#f28ea0"/>
    <rect x="56" y="48" width="8" height="8" fill="#f28ea0"/>
    <rect x="64" y="48" width="8" height="8" fill="#f28ea0"/>
    <rect x="72" y="48" width="8" height="8" fill="#f28ea0"/>
    <rect x="80" y="48" width="8" height="8" fill="#f28ea0"/>
    <rect x="88" y="48" width="8" height="8" fill="#f28ea0"/>
    <rect x="96" y="48" width="8" height="8" fill="#f28ea0"/>
    <rect x="104" y="48" width="8" height="8" fill="#f28ea0"/>
    <rect x="112" y="48" width="8" height="8" fill="#f28ea0"/>
    <rect x="120" y="48" width="8" height="8" fill="#cb6178"/>
    <rect x="16" y="56" width="8" height="8" fill="#f28ea0"/>
    <rect x="24" y="56" width="8" height="8" fill="#f28ea0"/>
    <rect x="32" y="56" width="8" height="8" fill="#f28ea0"/>
    <rect x="40" y="56" width="8" height="8" fill="#f28ea0"/>
    <rect x="48" y="56" width="8" height="8" fill="#f28ea0"/>
    <rect x="56" y="56" width="8" height="8" fill="#f28ea0"/>
    <rect x="64" y="56" width="8" height="8" fill="#f28ea0"/>
    <rect x="72" y="56" width="8" height="8" fill="#f28ea0"/>
    <rect x="80" y="56" width="8" height="8" fill="#f28ea0"/>
    <rect x="88" y="56" width="8" height="8" fill="#f28ea0"/>
    <rect x="96" y="56" width="8" height="8" fill="#f28ea0"/>
    <rect x="104" y="56" width="8" height="8" fill="#f28ea0"/>
    <rect x="112" y="56" width="8" height="8" fill="#f28ea0"/>
    <rect x="120" y="56" width="8" height="8" fill="#f28ea0"/>
    <rect x="16" y="64" width="8" height="8" fill="#f28ea0"/>
    <rect x="24" y="64" width="8" height="8" fill="#f28ea0"/>
    <rect x="32" y="64" width="8" height="8" fill="#140d11"/>
    <rect x="40" y="64" width="8" height="8" fill="#140d11"/>
    <rect x="48" y="64" width="8" height="8" fill="#f28ea0"/>
    <rect x="56" y="64" width="8" height="8" fill="#f28ea0"/>
    <rect x="64" y="64" width="8" height="8" fill="#f28ea0"/>
    <rect x="72" y="64" width="8" height="8" fill="#f28ea0"/>
    <rect x="80" y="64" width="8" height="8" fill="#f28ea0"/>
    <rect x="88" y="64" width="8" height="8" fill="#f28ea0"/>
    <rect x="96" y="64" width="8" height="8" fill="#140d11"/>
    <rect x="104" y="64" width="8" height="8" fill="#140d11"/>
    <rect x="112" y="64" width="8" height="8" fill="#f28ea0"/>
    <rect x="120" y="64" width="8" height="8" fill="#f28ea0"/>
    <rect x="16" y="72" width="8" height="8" fill="#f28ea0"/>
    <rect x="24" y="72" width="8" height="8" fill="#f28ea0"/>
    <rect x="32" y="72" width="8" height="8" fill="#f28ea0"/>
    <rect x="40" y="72" width="8" height="8" fill="#f28ea0"/>
    <rect x="48" y="72" width="8" height="8" fill="#f28ea0"/>
    <rect x="56" y="72" width="8" height="8" fill="#f28ea0"/>
    <rect x="64" y="72" width="8" height="8" fill="#f6c4cd"/>
    <rect x="72" y="72" width="8" height="8" fill="#f6c4cd"/>
    <rect x="80" y="72" width="8" height="8" fill="#f28ea0"/>
    <rect x="88" y="72" width="8" height="8" fill="#f28ea0"/>
    <rect x="96" y="72" width="8" height="8" fill="#f28ea0"/>
    <rect x="104" y="72" width="8" height="8" fill="#f28ea0"/>
    <rect x="112" y="72" width="8" height="8" fill="#f28ea0"/>
    <rect x="120" y="72" width="8" height="8" fill="#f28ea0"/>
    <rect x="16" y="80" width="8" height="8" fill="#f28ea0"/>
    <rect x="24" y="80" width="8" height="8" fill="#f6c4cd"/>
    <rect x="32" y="80" width="8" height="8" fill="#f6c4cd"/>
    <rect x="40" y="80" width="8" height="8" fill="#f28ea0"/>
    <rect x="48" y="80" width="8" height="8" fill="#f28ea0"/>
    <rect x="56" y="80" width="8" height="8" fill="#f28ea0"/>
    <rect x="64" y="80" width="8" height="8" fill="#f6c4cd"/>
    <rect x="72" y="80" width="8" height="8" fill="#f6c4cd"/>
    <rect x="80" y="80" width="8" height="8" fill="#f28ea0"/>
    <rect x="88" y="80" width="8" height="8" fill="#f28ea0"/>
    <rect x="96" y="80" width="8" height="8" fill="#f28ea0"/>
    <rect x="104" y="80" width="8" height="8" fill="#f6c4cd"/>
    <rect x="112" y="80" width="8" height="8" fill="#f6c4cd"/>
    <rect x="120" y="80" width="8" height="8" fill="#f28ea0"/>
    <rect x="16" y="88" width="8" height="8" fill="#f28ea0"/>
    <rect x="24" y="88" width="8" height="8" fill="#f6c4cd"/>
    <rect x="32" y="88" width="8" height="8" fill="#f6c4cd"/>
    <rect x="40" y="88" width="8" height="8" fill="#f28ea0"/>
    <rect x="48" y="88" width="8" height="8" fill="#f28ea0"/>
    <rect x="56" y="88" width="8" height="8" fill="#f28ea0"/>
    <rect x="64" y="88" width="8" height="8" fill="#7c3044"/>
    <rect x="72" y="88" width="8" height="8" fill="#7c3044"/>
    <rect x="80" y="88" width="8" height="8" fill="#f28ea0"/>
    <rect x="88" y="88" width="8" height="8" fill="#f28ea0"/>
    <rect x="96" y="88" width="8" height="8" fill="#f28ea0"/>
    <rect x="104" y="88" width="8" height="8" fill="#f6c4cd"/>
    <rect x="112" y="88" width="8" height="8" fill="#f6c4cd"/>
    <rect x="120" y="88" width="8" height="8" fill="#f28ea0"/>
    <rect x="24" y="96" width="8" height="8" fill="#cb6178"/>
    <rect x="32" y="96" width="8" height="8" fill="#f28ea0"/>
    <rect x="40" y="96" width="8" height="8" fill="#f28ea0"/>
    <rect x="48" y="96" width="8" height="8" fill="#f28ea0"/>
    <rect x="56" y="96" width="8" height="8" fill="#f28ea0"/>
    <rect x="64" y="96" width="8" height="8" fill="#7c3044"/>
    <rect x="72" y="96" width="8" height="8" fill="#7c3044"/>
    <rect x="80" y="96" width="8" height="8" fill="#f28ea0"/>
    <rect x="88" y="96" width="8" height="8" fill="#f28ea0"/>
    <rect x="96" y="96" width="8" height="8" fill="#f28ea0"/>
    <rect x="104" y="96" width="8" height="8" fill="#f28ea0"/>
    <rect x="112" y="96" width="8" height="8" fill="#cb6178"/>
    <rect x="32" y="104" width="8" height="8" fill="#cb6178"/>
    <rect x="40" y="104" width="8" height="8" fill="#f28ea0"/>
    <rect x="48" y="104" width="8" height="8" fill="#f28ea0"/>
    <rect x="56" y="104" width="8" height="8" fill="#f28ea0"/>
    <rect x="64" y="104" width="8" height="8" fill="#f28ea0"/>
    <rect x="72" y="104" width="8" height="8" fill="#f28ea0"/>
    <rect x="80" y="104" width="8" height="8" fill="#f28ea0"/>
    <rect x="88" y="104" width="8" height="8" fill="#f28ea0"/>
    <rect x="96" y="104" width="8" height="8" fill="#f28ea0"/>
    <rect x="104" y="104" width="8" height="8" fill="#cb6178"/>
    <rect x="48" y="112" width="8" height="8" fill="#cb6178"/>
    <rect x="56" y="112" width="8" height="8" fill="#f28ea0"/>
    <rect x="64" y="112" width="8" height="8" fill="#f28ea0"/>
    <rect x="72" y="112" width="8" height="8" fill="#f28ea0"/>
    <rect x="80" y="112" width="8" height="8" fill="#f28ea0"/>
    <rect x="88" y="112" width="8" height="8" fill="#cb6178"/>
  </g>
  <text x="241.6" y="96" font-family="ui-monospace, 'JetBrains Mono', Menlo, monospace" font-size="62" font-weight="800" letter-spacing="6" fill="#ff8fb0">KUNAI</text>
  <text x="243.6" y="134" font-family="ui-monospace, 'JetBrains Mono', Menlo, monospace" font-size="18" fill="#cabfca">Terminal-native media shell · finds the playable stream</text>
  <g font-family="ui-monospace, 'JetBrains Mono', Menlo, monospace" font-size="14">
    <circle cx="247.6" cy="168" r="5" fill="#c98bff"/><text x="259.6" y="173" fill="#968a98">anime</text>
    <circle cx="333.6" cy="168" r="5" fill="#4fd1c5"/><text x="345.6" y="173" fill="#968a98">series</text>
    <circle cx="421.6" cy="168" r="5" fill="#f4c45c"/><text x="433.6" y="173" fill="#968a98">movies</text>
  </g>
</svg>
