<svg xmlns="http://www.w3.org/2000/svg" viewBox="0 0 1280 640" width="1280" height="640" role="img" aria-label="Kunai — terminal-first streaming CLI">
  <defs>
    <linearGradient id="bg" x1="0" y1="0" x2="1" y2="1">
      <stop offset="0%" stop-color="#100b0f"/>
      <stop offset="55%" stop-color="#161019"/>
      <stop offset="100%" stop-color="#2a2030"/>
    </linearGradient>
    <radialGradient id="glow" cx="22%" cy="38%" r="55%">
      <stop offset="0%" stop-color="rgba(255,143,176,0.12)"/>
      <stop offset="100%" stop-color="transparent"/>
    </radialGradient>
    
  <filter id="grain" x="0" y="0" width="100%" height="100%">
    <feTurbulence type="fractalNoise" baseFrequency="0.85" numOctaves="4" stitchTiles="stitch" result="noise"/>
    <feColorMatrix type="matrix" values="1 0 0 0 0  0 1 0 0 0  0 0 1 0 0  0 0 0 0.035 0"/>
    <feBlend in="SourceGraphic" in2="noise" mode="overlay"/>
  </filter>
  </defs>
  <rect width="1280" height="640" fill="url(#bg)"/>
  <rect width="1280" height="640" fill="url(#glow)"/>
  <line x1="80" y1="0" x2="80" y2="640" stroke="#281f2e" stroke-width="1" opacity="0.35"/>
    <line x1="160" y1="0" x2="160" y2="640" stroke="#281f2e" stroke-width="1" opacity="0.35"/>
    <line x1="240" y1="0" x2="240" y2="640" stroke="#281f2e" stroke-width="1" opacity="0.35"/>
    <line x1="320" y1="0" x2="320" y2="640" stroke="#281f2e" stroke-width="1" opacity="0.35"/>
    <line x1="400" y1="0" x2="400" y2="640" stroke="#281f2e" stroke-width="1" opacity="0.35"/>
    <line x1="480" y1="0" x2="480" y2="640" stroke="#281f2e" stroke-width="1" opacity="0.35"/>
    <line x1="560" y1="0" x2="560" y2="640" stroke="#281f2e" stroke-width="1" opacity="0.35"/>
    <line x1="640" y1="0" x2="640" y2="640" stroke="#281f2e" stroke-width="1" opacity="0.35"/>
    <line x1="720" y1="0" x2="720" y2="640" stroke="#281f2e" stroke-width="1" opacity="0.35"/>
    <line x1="800" y1="0" x2="800" y2="640" stroke="#281f2e" stroke-width="1" opacity="0.35"/>
    <line x1="880" y1="0" x2="880" y2="640" stroke="#281f2e" stroke-width="1" opacity="0.35"/>
    <line x1="960" y1="0" x2="960" y2="640" stroke="#281f2e" stroke-width="1" opacity="0.35"/>
    <line x1="1040" y1="0" x2="1040" y2="640" stroke="#281f2e" stroke-width="1" opacity="0.35"/>
    <line x1="1120" y1="0" x2="1120" y2="640" stroke="#281f2e" stroke-width="1" opacity="0.35"/>
    <line x1="1200" y1="0" x2="1200" y2="640" stroke="#281f2e" stroke-width="1" opacity="0.35"/>
    <line x1="0" y1="80" x2="1280" y2="80" stroke="#281f2e" stroke-width="1" opacity="0.35"/>
    <line x1="0" y1="160" x2="1280" y2="160" stroke="#281f2e" stroke-width="1" opacity="0.35"/>
    <line x1="0" y1="240" x2="1280" y2="240" stroke="#281f2e" stroke-width="1" opacity="0.35"/>
    <line x1="0" y1="320" x2="1280" y2="320" stroke="#281f2e" stroke-width="1" opacity="0.35"/>
    <line x1="0" y1="400" x2="1280" y2="400" stroke="#281f2e" stroke-width="1" opacity="0.35"/>
    <line x1="0" y1="480" x2="1280" y2="480" stroke="#281f2e" stroke-width="1" opacity="0.35"/>
    <line x1="0" y1="560" x2="1280" y2="560" stroke="#281f2e" stroke-width="1" opacity="0.35"/>
  <rect x="446" y="56" width="786" height="528" rx="18" fill="#1c1620" stroke="#473b51" stroke-width="1" opacity="0.92"/>
  <g transform="translate(88 157) scale(2.55)" shape-rendering="crispEdges">
    <rect x="32" y="8" width="8" height="8" fill="#cb6178"/>
    <rect x="104" y="8" width="8" height="8" fill="#cb6178"/>
    <rect x="24" y="16" width="8" height="8" fill="#cb6178"/>
    <rect x="32" y="16" width="8" height="8" fill="#f28ea0"/>
    <rect x="40" y="16" width="8" height="8" fill="#cb6178"/>
    <rect x="96" y="16" width="8" height="8" fill="#cb6178"/>
    <rect x="104" y="16" width="8" height="8" fill="#f28ea0"/>
    <rect x="112" y="16" width="8" height="8" fill="#cb6178"/>
    <rect x="24" y="24" width="8" height="8" fill="#cb6178"/>
    <rect x="32" y="24" width="8" height="8" fill="#f28ea0"/>
    <rect x="40" y="24" width="8" height="8" fill="#f6c4cd"/>
    <rect x="48" y="24" width="8" height="8" fill="#cb6178"/>
    <rect x="88" y="24" width="8" height="8" fill="#cb6178"/>
    <rect x="96" y="24" width="8" height="8" fill="#f6c4cd"/>
    <rect x="104" y="24" width="8" height="8" fill="#f28ea0"/>
    <rect x="112" y="24" width="8" height="8" fill="#cb6178"/>
    <rect x="24" y="32" width="8" height="8" fill="#cb6178"/>
    <rect x="32" y="32" width="8" height="8" fill="#f28ea0"/>
    <rect x="40" y="32" width="8" height="8" fill="#f28ea0"/>
    <rect x="48" y="32" width="8" height="8" fill="#cb6178"/>
    <rect x="88" y="32" width="8" height="8" fill="#cb6178"/>
    <rect x="96" y="32" width="8" height="8" fill="#f28ea0"/>
    <rect x="104" y="32" width="8" height="8" fill="#f28ea0"/>
    <rect x="112" y="32" width="8" height="8" fill="#cb6178"/>
    <rect x="16" y="40" width="8" height="8" fill="#cb6178"/>
    <rect x="24" y="40" width="8" height="8" fill="#f28ea0"/>
    <rect x="32" y="40" width="8" height="8" fill="#f28ea0"/>
    <rect x="40" y="40" width="8" height="8" fill="#f28ea0"/>
    <rect x="48" y="40" width="8" height="8" fill="#cb6178"/>
    <rect x="56" y="40" width="8" height="8" fill="#cb6178"/>
    <rect x="64" y="40" width="8" height="8" fill="#cb6178"/>
    <rect x="72" y="40" width="8" height="8" fill="#cb6178"/>
    <rect x="80" y="40" width="8" height="8" fill="#f28ea0"/>
    <rect x="88" y="40" width="8" height="8" fill="#f28ea0"/>
    <rect x="96" y="40" width="8" height="8" fill="#f28ea0"/>
    <rect x="104" y="40" width="8" height="8" fill="#f28ea0"/>
    <rect x="112" y="40" width="8" height="8" fill="#cb6178"/>
    <rect x="16" y="48" width="8" height="8" fill="#cb6178"/>
    <rect x="24" y="48" width="8" height="8" fill="#f28ea0"/>
    <rect x="32" y="48" width="8" height="8" fill="#f28ea0"/>
    <rect x="40" y="48" width="8" height="8" fill="#f28ea0"/>
    <rect x="48" y="48" width="8" height="8" fill="#f28ea0"/>
    <rect x="56" y="48" width="8" height="8" fill="#f28ea0"/>
    <rect x="64" y="48" width="8" height="8" fill="#f28ea0"/>
    <rect x="72" y="48" width="8" height="8" fill="#f28ea0"/>
    <rect x="80" y="48" width="8" height="8" fill="#f28ea0"/>
    <rect x="88" y="48" width="8" height="8" fill="#f28ea0"/>
    <rect x="96" y="48" width="8" height="8" fill="#f28ea0"/>
    <rect x="104" y="48" width="8" height="8" fill="#f28ea0"/>
    <rect x="112" y="48" width="8" height="8" fill="#f28ea0"/>
    <rect x="120" y="48" width="8" height="8" fill="#cb6178"/>
    <rect x="16" y="56" width="8" height="8" fill="#f28ea0"/>
    <rect x="24" y="56" width="8" height="8" fill="#f28ea0"/>
    <rect x="32" y="56" width="8" height="8" fill="#f28ea0"/>
    <rect x="40" y="56" width="8" height="8" fill="#f28ea0"/>
    <rect x="48" y="56" width="8" height="8" fill="#f28ea0"/>
    <rect x="56" y="56" width="8" height="8" fill="#f28ea0"/>
    <rect x="64" y="56" width="8" height="8" fill="#f28ea0"/>
    <rect x="72" y="56" width="8" height="8" fill="#f28ea0"/>
    <rect x="80" y="56" width="8" height="8" fill="#f28ea0"/>
    <rect x="88" y="56" width="8" height="8" fill="#f28ea0"/>
    <rect x="96" y="56" width="8" height="8" fill="#f28ea0"/>
    <rect x="104" y="56" width="8" height="8" fill="#f28ea0"/>
    <rect x="112" y="56" width="8" height="8" fill="#f28ea0"/>
    <rect x="120" y="56" width="8" height="8" fill="#f28ea0"/>
    <rect x="16" y="64" width="8" height="8" fill="#f28ea0"/>
    <rect x="24" y="64" width="8" height="8" fill="#f28ea0"/>
    <rect x="32" y="64" width="8" height="8" fill="#140d11"/>
    <rect x="40" y="64" width="8" height="8" fill="#140d11"/>
    <rect x="48" y="64" width="8" height="8" fill="#f28ea0"/>
    <rect x="56" y="64" width="8" height="8" fill="#f28ea0"/>
    <rect x="64" y="64" width="8" height="8" fill="#f28ea0"/>
    <rect x="72" y="64" width="8" height="8" fill="#f28ea0"/>
    <rect x="80" y="64" width="8" height="8" fill="#f28ea0"/>
    <rect x="88" y="64" width="8" height="8" fill="#f28ea0"/>
    <rect x="96" y="64" width="8" height="8" fill="#140d11"/>
    <rect x="104" y="64" width="8" height="8" fill="#140d11"/>
    <rect x="112" y="64" width="8" height="8" fill="#f28ea0"/>
    <rect x="120" y="64" width="8" height="8" fill="#f28ea0"/>
    <rect x="16" y="72" width="8" height="8" fill="#f28ea0"/>
    <rect x="24" y="72" width="8" height="8" fill="#f28ea0"/>
    <rect x="32" y="72" width="8" height="8" fill="#f28ea0"/>
    <rect x="40" y="72" width="8" height="8" fill="#f28ea0"/>
    <rect x="48" y="72" width="8" height="8" fill="#f28ea0"/>
    <rect x="56" y="72" width="8" height="8" fill="#f28ea0"/>
    <rect x="64" y="72" width="8" height="8" fill="#f6c4cd"/>
    <rect x="72" y="72" width="8" height="8" fill="#f6c4cd"/>
    <rect x="80" y="72" width="8" height="8" fill="#f28ea0"/>
    <rect x="88" y="72" width="8" height="8" fill="#f28ea0"/>
    <rect x="96" y="72" width="8" height="8" fill="#f28ea0"/>
    <rect x="104" y="72" width="8" height="8" fill="#f28ea0"/>
    <rect x="112" y="72" width="8" height="8" fill="#f28ea0"/>
    <rect x="120" y="72" width="8" height="8" fill="#f28ea0"/>
    <rect x="16" y="80" width="8" height="8" fill="#f28ea0"/>
    <rect x="24" y="80" width="8" height="8" fill="#f6c4cd"/>
    <rect x="32" y="80" width="8" height="8" fill="#f6c4cd"/>
    <rect x="40" y="80" width="8" height="8" fill="#f28ea0"/>
    <rect x="48" y="80" width="8" height="8" fill="#f28ea0"/>
    <rect x="56" y="80" width="8" height="8" fill="#f28ea0"/>
    <rect x="64" y="80" width="8" height="8" fill="#f6c4cd"/>
    <rect x="72" y="80" width="8" height="8" fill="#f6c4cd"/>
    <rect x="80" y="80" width="8" height="8" fill="#f28ea0"/>
    <rect x="88" y="80" width="8" height="8" fill="#f28ea0"/>
    <rect x="96" y="80" width="8" height="8" fill="#f28ea0"/>
    <rect x="104" y="80" width="8" height="8" fill="#f6c4cd"/>
    <rect x="112" y="80" width="8" height="8" fill="#f6c4cd"/>
    <rect x="120" y="80" width="8" height="8" fill="#f28ea0"/>
    <rect x="16" y="88" width="8" height="8" fill="#f28ea0"/>
    <rect x="24" y="88" width="8" height="8" fill="#f6c4cd"/>
    <rect x="32" y="88" width="8" height="8" fill="#f6c4cd"/>
    <rect x="40" y="88" width="8" height="8" fill="#f28ea0"/>
    <rect x="48" y="88" width="8" height="8" fill="#f28ea0"/>
    <rect x="56" y="88" width="8" height="8" fill="#f28ea0"/>
    <rect x="64" y="88" width="8" height="8" fill="#7c3044"/>
    <rect x="72" y="88" width="8" height="8" fill="#7c3044"/>
    <rect x="80" y="88" width="8" height="8" fill="#f28ea0"/>
    <rect x="88" y="88" width="8" height="8" fill="#f28ea0"/>
    <rect x="96" y="88" width="8" height="8" fill="#f28ea0"/>
    <rect x="104" y="88" width="8" height="8" fill="#f6c4cd"/>
    <rect x="112" y="88" width="8" height="8" fill="#f6c4cd"/>
    <rect x="120" y="88" width="8" height="8" fill="#f28ea0"/>
    <rect x="24" y="96" width="8" height="8" fill="#cb6178"/>
    <rect x="32" y="96" width="8" height="8" fill="#f28ea0"/>
    <rect x="40" y="96" width="8" height="8" fill="#f28ea0"/>
    <rect x="48" y="96" width="8" height="8" fill="#f28ea0"/>
    <rect x="56" y="96" width="8" height="8" fill="#f28ea0"/>
    <rect x="64" y="96" width="8" height="8" fill="#7c3044"/>
    <rect x="72" y="96" width="8" height="8" fill="#7c3044"/>
    <rect x="80" y="96" width="8" height="8" fill="#f28ea0"/>
    <rect x="88" y="96" width="8" height="8" fill="#f28ea0"/>
    <rect x="96" y="96" width="8" height="8" fill="#f28ea0"/>
    <rect x="104" y="96" width="8" height="8" fill="#f28ea0"/>
    <rect x="112" y="96" width="8" height="8" fill="#cb6178"/>
    <rect x="32" y="104" width="8" height="8" fill="#cb6178"/>
    <rect x="40" y="104" width="8" height="8" fill="#f28ea0"/>
    <rect x="48" y="104" width="8" height="8" fill="#f28ea0"/>
    <rect x="56" y="104" width="8" height="8" fill="#f28ea0"/>
    <rect x="64" y="104" width="8" height="8" fill="#f28ea0"/>
    <rect x="72" y="104" width="8" height="8" fill="#f28ea0"/>
    <rect x="80" y="104" width="8" height="8" fill="#f28ea0"/>
    <rect x="88" y="104" width="8" height="8" fill="#f28ea0"/>
    <rect x="96" y="104" width="8" height="8" fill="#f28ea0"/>
    <rect x="104" y="104" width="8" height="8" fill="#cb6178"/>
    <rect x="48" y="112" width="8" height="8" fill="#cb6178"/>
    <rect x="56" y="112" width="8" height="8" fill="#f28ea0"/>
    <rect x="64" y="112" width="8" height="8" fill="#f28ea0"/>
    <rect x="72" y="112" width="8" height="8" fill="#f28ea0"/>
    <rect x="80" y="112" width="8" height="8" fill="#f28ea0"/>
    <rect x="88" y="112" width="8" height="8" fill="#cb6178"/>
  </g>
  <g transform="translate(470 108)">
    <g transform="scale(1.05)">
      <title>Kunai — kitsune blade mark</title>
  <!-- Fox-face / kunai-blade fusion: two ears = blade shoulders, point = blade tip. -->
  <path d="M32 59 L50 31 L45.5 13 L37 29 L32 33 L27 29 L18.5 13 L14 31 Z"
        fill="#f28ea0" stroke="#cb6178" stroke-width="1.5" stroke-linejoin="round"/>
  <!-- forged-edge facet down the blade -->
  <path d="M32 33 L32 59" stroke="#cb6178" stroke-width="1.4" stroke-linecap="round" opacity="0.7"/>
  <!-- kitsune eyes -->
  <rect x="24" y="35" width="4" height="4" rx="0.6" fill="#140d11"/>
  <rect x="36" y="35" width="4" height="4" rx="0.6" fill="#140d11"/>
  <!-- inner-ear sparks -->
  <path d="M22 22 l3 4" stroke="#f6c4cd" stroke-width="1.6" stroke-linecap="round"/>
  <path d="M42 22 l-3 4" stroke="#f6c4cd" stroke-width="1.6" stroke-linecap="round"/>
    </g>
    <text x="92" y="44" font-family="ui-monospace, 'JetBrains Mono', Menlo, monospace" font-size="68" font-weight="800" letter-spacing="8" fill="#ff8fb0">KUNAI</text>
    <text x="94" y="88" font-family="ui-monospace, 'JetBrains Mono', Menlo, monospace" font-size="22" fill="#cabfca">Terminal-first streaming</text>
    <text x="94" y="118" font-family="ui-monospace, 'JetBrains Mono', Menlo, monospace" font-size="22" fill="#cabfca">Finds the playable stream</text>
    <text x="94" y="152" font-family="ui-monospace, 'JetBrains Mono', Menlo, monospace" font-size="17" fill="#968a98">Search · pick source · watch in mpv · download offline</text>
  </g>
  
  <g>
    <rect x="470" y="286" width="738" height="56" rx="10" fill="#1c1620" stroke="#473b51" stroke-width="1"/>
    <rect x="470" y="286" width="738" height="22" rx="10" fill="#2a2030"/>
    <rect x="470" y="296" width="738" height="12" fill="#2a2030"/>
    <circle cx="488" cy="297" r="4" fill="#d85f86" opacity="0.85"/>
    <circle cx="502" cy="297" r="4" fill="#968a98" opacity="0.45"/>
    <circle cx="516" cy="297" r="4" fill="#968a98" opacity="0.45"/>
    <text x="490" y="330" font-family="ui-monospace, 'JetBrains Mono', Menlo, monospace" font-size="18" fill="#cabfca">
      <tspan fill="#ff8fb0">></tspan> curl -fsSL …/install.sh | bash
    </text>
  </g>
  
  <g>
    <rect x="470" y="364" width="738" height="56" rx="10" fill="#1c1620" stroke="#473b51" stroke-width="1"/>
    <rect x="470" y="364" width="738" height="22" rx="10" fill="#2a2030"/>
    <rect x="470" y="374" width="738" height="12" fill="#2a2030"/>
    <circle cx="488" cy="375" r="4" fill="#d85f86" opacity="0.85"/>
    <circle cx="502" cy="375" r="4" fill="#968a98" opacity="0.45"/>
    <circle cx="516" cy="375" r="4" fill="#968a98" opacity="0.45"/>
    <text x="490" y="408" font-family="ui-monospace, 'JetBrains Mono', Menlo, monospace" font-size="18" fill="#cabfca">
      <tspan fill="#ff8fb0">$</tspan> kunai -S "Dune"
    </text>
  </g>
  
  <g font-family="ui-monospace, 'JetBrains Mono', Menlo, monospace" font-size="13" fill="#968a98">
    <circle cx="470" cy="582" r="5" fill="#c98bff"/>
    <text x="484" y="586">anime</text>
    <circle cx="558" cy="582" r="5" fill="#4fd1c5"/>
    <text x="572" y="586">series</text>
    <circle cx="646" cy="582" r="5" fill="#f4c45c"/>
    <text x="660" y="586">movies</text>
  </g>
  <text x="1192" y="588" text-anchor="end" font-family="ui-monospace, 'JetBrains Mono', Menlo, monospace" font-size="15" fill="#5fb6ff">github.com/KitsuneKode/kunai</text>
  <text x="88" y="588" font-family="ui-monospace, 'JetBrains Mono', Menlo, monospace" font-size="13" letter-spacing="4" fill="#968a98">EMBER DUSK · SAKURA</text>
  <rect width="1280" height="640" fill="transparent" filter="url(#grain)"/>
</svg>